<svg width="726" height="504" viewBox="0 0 726 504" fill="none" xmlns="http://www.w3.org/2000/svg">
<path d="M212.4 48H193.8C178.6 48 163.4 51 148.2 57C133 63 118.8 72 105.6 84C92.8 96 81.4 111 71.4 129C61.8 147 54.6 168 49.8 192H43.8V42H331.2V48L148.8 456H189.6C206 456 222 452.8 237.6 446.4C253.2 440 267.6 430 280.8 416.4C294 402.8 305.6 385.4 315.6 364.2C326 343 334 317.6 339.6 288H345.6V462H30V456L212.4 48ZM584.808 42C572.808 42 561.408 47.4 550.608 58.2C539.808 68.6 530.408 83.2 522.408 102C514.408 120.8 508.008 143 503.208 168.6C498.408 194.2 496.008 222 496.008 252C496.008 282 498.408 309.8 503.208 335.4C508.008 361 514.408 383.2 522.408 402C530.408 420.8 539.808 435.6 550.608 446.4C561.408 456.8 572.808 462 584.808 462C595.208 462 605.008 458 614.208 450C623.408 441.6 632.208 429.8 640.608 414.6C649.408 399.4 657.808 381.2 665.808 360C673.808 338.4 681.808 314.4 689.808 288H695.808V443.4C681.008 451.4 664.408 457.6 646.008 462C627.608 466 609.408 468 591.408 468C561.408 468 533.608 462.6 508.008 451.8C482.408 441 460.208 426 441.408 406.8C423.008 387.6 408.408 365 397.608 339C387.208 312.6 382.008 283.8 382.008 252.6C382.008 221.4 387.208 192.6 397.608 166.2C408.408 139.8 423.008 117 441.408 97.8C460.208 78.6 482.408 63.6 508.008 52.8C533.608 41.6 561.408 36 591.408 36C609.408 36 627.608 38.2 646.008 42.6C664.408 46.6 681.008 52.6 695.808 60.6V203.4H689.808C681.808 180.2 673.808 158.8 665.808 139.2C657.808 119.6 649.408 102.6 640.608 88.2C632.208 73.8 623.408 62.6 614.208 54.6C605.008 46.2 595.208 42 584.808 42Z" fill="white"/>
</svg>
