<svg width="250" height="250" viewBox="0 0 250 250" fill="none" xmlns="http://www.w3.org/2000/svg">
<g filter="url(#filter0_d_1342_6)">
<path d="M102.143 165.164L165.164 125L102.143 84.8357V165.164ZM125.017 223.958C111.437 223.958 98.6421 221.361 86.6324 216.166C74.6227 210.972 64.1202 203.879 55.1248 194.888C46.1294 185.896 39.0333 175.398 33.8366 163.394C28.6399 151.389 26.0415 138.597 26.0415 125.017C26.0415 111.33 28.6387 98.4655 33.8332 86.4224C39.0276 74.3792 46.1205 63.9033 55.1118 54.9948C64.1033 46.0861 74.6012 39.0334 86.6056 33.8367C98.6101 28.64 111.402 26.0417 124.982 26.0417C138.669 26.0417 151.534 28.6389 163.577 33.8333C175.62 39.0278 186.096 46.0773 195.005 54.9818C203.913 63.8865 210.966 74.3577 216.163 86.3956C221.359 98.4333 223.958 111.296 223.958 124.982C223.958 138.562 221.36 151.357 216.166 163.367C210.972 175.377 203.922 185.879 195.018 194.874C186.113 203.87 175.642 210.966 163.604 216.163C151.566 221.359 138.704 223.958 125.017 223.958ZM125 212.139C149.252 212.139 169.838 203.652 186.758 186.678C203.679 169.705 212.139 149.145 212.139 125C212.139 100.748 203.679 80.1614 186.758 63.2409C169.838 46.3206 149.252 37.8604 125 37.8604C100.854 37.8604 80.2947 46.3206 63.3209 63.2409C46.3472 80.1614 37.8603 100.748 37.8603 125C37.8603 149.145 46.3472 169.705 63.3209 186.678C80.2947 203.652 100.854 212.139 125 212.139Z" fill="white"/>
</g>
<defs>
<filter id="filter0_d_1342_6" x="10.0415" y="10.0417" width="229.916" height="229.916" filterUnits="userSpaceOnUse" color-interpolation-filters="sRGB">
<feFlood flood-opacity="0" result="BackgroundImageFix"/>
<feColorMatrix in="SourceAlpha" type="matrix" values="0 0 0 0 0 0 0 0 0 0 0 0 0 0 0 0 0 0 127 0" result="hardAlpha"/>
<feOffset/>
<feGaussianBlur stdDeviation="8"/>
<feComposite in2="hardAlpha" operator="out"/>
<feColorMatrix type="matrix" values="0 0 0 0 0.25098 0 0 0 0 0.25098 0 0 0 0 0.25098 0 0 0 0.5 0"/>
<feBlend mode="normal" in2="BackgroundImageFix" result="effect1_dropShadow_1342_6"/>
<feBlend mode="normal" in="SourceGraphic" in2="effect1_dropShadow_1342_6" result="shape"/>
</filter>
</defs>
</svg>
