<svg width="48" height="48" viewBox="0 0 48 48" fill="none" xmlns="http://www.w3.org/2000/svg">
<path d="M39.5308 41.123L26.5539 28.1461C25.5589 29.0266 24.3988 29.705 23.0734 30.1815C21.748 30.6579 20.3761 30.8961 18.9577 30.8961C15.5619 30.8961 12.688 29.7209 10.3359 27.3704C7.9838 25.0199 6.80775 22.17 6.80775 18.8205C6.80775 15.471 7.98299 12.6199 10.3335 10.2673C12.6839 7.91478 15.5376 6.7385 18.8944 6.7385C22.2513 6.7385 25.1055 7.91405 27.4572 10.2651C29.8088 12.6162 30.9846 15.4671 30.9846 18.8179C30.9846 20.2188 30.7448 21.5827 30.2654 22.9096C29.7859 24.2365 29.0923 25.4385 28.1846 26.5154L41.1923 39.4423L39.5308 41.123ZM18.927 28.627C21.6588 28.627 23.9732 27.675 25.8701 25.7712C27.767 23.8673 28.7154 21.5494 28.7154 18.8173C28.7154 16.0853 27.767 13.7673 25.8701 11.8634C23.9732 9.95962 21.6588 9.0077 18.927 9.0077C16.178 9.0077 13.8491 9.95962 11.9403 11.8634C10.0314 13.7673 9.07695 16.0853 9.07695 18.8173C9.07695 21.5494 10.0314 23.8673 11.9403 25.7712C13.8491 27.675 16.178 28.627 18.927 28.627Z" fill="white"/>
</svg>
