<svg width="15" height="15" viewBox="0 0 15 15" fill="none" xmlns="http://www.w3.org/2000/svg"><path d="M12.4665 8.137C12.4932 7.929 12.5132 7.721 12.5132 7.5C12.5132 7.279 12.4932 7.071 12.4665 6.863L13.8764 5.7905C14.0034 5.693 14.0368 5.5175 13.9566 5.3745L12.6202 3.1255C12.56 3.0215 12.4464 2.963 12.3261 2.963C12.286 2.963 12.2459 2.9695 12.2125 2.9825L10.5486 3.6325C10.2011 3.3725 9.82693 3.158 9.41931 2.9955L9.16538 1.273C9.14533 1.117 9.005 1 8.83795 1H6.16501C5.99795 1 5.85762 1.117 5.83757 1.273L5.58364 2.9955C5.17602 3.158 4.80181 3.379 4.45433 3.6325L2.79042 2.9825C2.75033 2.9695 2.71023 2.963 2.67014 2.963C2.55654 2.963 2.44294 3.0215 2.3828 3.1255L1.04633 5.3745C0.959459 5.5175 0.999553 5.693 1.12652 5.7905L2.53649 6.863C2.50976 7.071 2.48972 7.2855 2.48972 7.5C2.48972 7.7145 2.50976 7.929 2.53649 8.137L1.12652 9.2095C0.999553 9.307 0.966142 9.4825 1.04633 9.6255L2.3828 11.8745C2.44294 11.9785 2.55654 12.037 2.67682 12.037C2.71692 12.037 2.75701 12.0305 2.79042 12.0175L4.45433 11.3675C4.80181 11.6275 5.17602 11.842 5.58364 12.0045L5.83757 13.727C5.85762 13.883 5.99795 14 6.16501 14H8.83795C9.005 14 9.14533 13.883 9.16538 13.727L9.41931 12.0045C9.82693 11.842 10.2011 11.621 10.5486 11.3675L12.2125 12.0175C12.2526 12.0305 12.2927 12.037 12.3328 12.037C12.4464 12.037 12.56 11.9785 12.6202 11.8745L13.9566 9.6255C14.0368 9.4825 14.0034 9.307 13.8764 9.2095L12.4665 8.137ZM11.1434 7.0255C11.1701 7.227 11.1768 7.3635 11.1768 7.5C11.1768 7.6365 11.1634 7.7795 11.1434 7.9745L11.0498 8.709L11.6445 9.164L12.3662 9.71L11.8985 10.4965L11.0498 10.165L10.3548 9.892L9.75343 10.334C9.46609 10.542 9.19211 10.698 8.91813 10.8085L8.20981 11.088L8.10289 11.8225L7.96924 12.7H7.03371L6.90675 11.8225L6.79983 11.088L6.0915 10.8085C5.80416 10.6915 5.53687 10.542 5.26957 10.347L4.66148 9.892L3.95315 10.1715L3.10449 10.503L2.63673 9.7165L3.35842 9.1705L3.95315 8.7155L3.8596 7.981C3.83955 7.7795 3.82619 7.63 3.82619 7.5C3.82619 7.37 3.83955 7.2205 3.8596 7.0255L3.95315 6.291L3.35842 5.836L2.63673 5.29L3.10449 4.5035L3.95315 4.835L4.64811 5.108L5.24953 4.666C5.53687 4.458 5.81084 4.302 6.08482 4.1915L6.79315 3.912L6.90007 3.1775L7.03371 2.3H7.96256L8.08952 3.1775L8.19644 3.912L8.90477 4.1915C9.19211 4.3085 9.4594 4.458 9.7267 4.653L10.3348 5.108L11.0431 4.8285L11.8918 4.497L12.3595 5.2835L11.6445 5.836L11.0498 6.291L11.1434 7.0255ZM7.50148 4.9C6.02468 4.9 4.82854 6.0635 4.82854 7.5C4.82854 8.9365 6.02468 10.1 7.50148 10.1C8.97827 10.1 10.1744 8.9365 10.1744 7.5C10.1744 6.0635 8.97827 4.9 7.50148 4.9ZM7.50148 8.8C6.76642 8.8 6.16501 8.215 6.16501 7.5C6.16501 6.785 6.76642 6.2 7.50148 6.2C8.23653 6.2 8.83795 6.785 8.83795 7.5C8.83795 8.215 8.23653 8.8 7.50148 8.8Z" fill="white"/></svg>